<?xml version="1.0" encoding="UTF-8" standalone="no"?>
<!-- Created with Inkscape (http://www.inkscape.org/) -->

<svg
   version="1.1"
   id="svg9"
   width="1618.193"
   height="1619.9833"
   viewBox="0 0 1618.193 1619.9833"
   xmlns="http://www.w3.org/2000/svg"
   xmlns:svg="http://www.w3.org/2000/svg">
  <defs
     id="defs13">
    <clipPath
       clipPathUnits="userSpaceOnUse"
       id="clipPath27">
      <path
         d="M 0,2020 H 2020 V 0 H 0 Z"
         id="path25" />
    </clipPath>
  </defs>
  <g
     id="g17"
     transform="matrix(1.3333333,0,0,-1.3333333,-537.57012,2153.8106)">
    <g
       id="g21">
      <g
         id="g23"
         clip-path="url(#clipPath27)">
        <g
           id="g29"
           transform="translate(1124.1724,642.7925)">
          <path
             d="M 0,0 -4.207,8.2 C -48.021,-5.703 -90.034,-9.582 -125.392,-9.023 -155.426,-7.708 -189.122,-2.91 -224.138,8.2 L -228.345,0 c 0,0 110.739,-75.341 110.739,-242.422 h 7.658 C -109.948,-75.341 0,0 0,0"
             style="fill-opacity:1;fill-rule:nonzero;stroke:none"
             id="path31" />
        </g>
        <g
           id="g33"
           transform="translate(645.5996,893.3462)">
          <path
             d="M 0,0 8.2,4.207 C -5.703,48.021 -9.582,90.034 -9.023,125.392 -7.708,155.426 -2.91,189.122 8.2,224.138 L 0,228.345 c 0,0 -75.341,-110.739 -242.422,-110.739 v -7.658 C -75.341,109.948 0,0 0,0"
             style="fill-opacity:1;fill-rule:nonzero;stroke:none"
             id="path35" />
        </g>
        <g
           id="g37"
           transform="translate(1374.4004,1121.6914)">
          <path
             d="M 0,0 -8.2,-4.207 C 5.703,-48.021 9.582,-90.034 9.023,-125.392 7.708,-155.426 2.91,-189.122 -8.2,-224.138 l 8.2,-4.207 c 0,0 75.341,110.739 242.422,110.739 v 7.658 C 75.341,-109.948 0,0 0,0"
             style="fill-opacity:1;fill-rule:nonzero;stroke:none"
             id="path39" />
        </g>
        <g
           id="g41"
           transform="translate(876.5518,1226.084)">
          <path
             d="M 0,0 V -87.88 H -81.371 L -345.012,226.211 Z"
             style="fill-opacity:1;fill-rule:nonzero;stroke:none"
             id="path43" />
        </g>
        <g
           id="g45"
           transform="translate(788.6714,876.2241)">
          <path
             d="M 0,0 H 87.88 V -81.371 L -226.211,-345.012 Z"
             style="fill-opacity:1;fill-rule:nonzero;stroke:none"
             id="path47" />
        </g>
        <g
           id="g49"
           transform="translate(1306.4775,1099.9766)">
          <path
             d="m 0,0 -37.835,-19.834 h -186.019 v 186.019 l 19.834,37.835 c 0,0 -27.158,9.154 -92.458,9.154 -54.315,0 -92.457,-9.154 -92.457,-9.154 l 19.834,-37.835 V -19.834 H -555.12 L -592.955,0 c 0,0 -9.154,-27.157 -9.154,-92.458 0,-54.314 9.154,-92.457 9.154,-92.457 l 37.835,19.834 h 186.019 V -351.1 l -19.834,-37.835 c 0,0 27.157,-9.154 92.457,-9.154 54.315,0 92.458,9.154 92.458,9.154 l -19.834,37.835 v 186.019 H -37.835 L 0,-184.915 c 0,0 9.154,27.158 9.154,92.457 C 9.154,-38.142 0,0 0,0"
             style="fill-opacity:1;fill-rule:nonzero;stroke:none"
             id="path51" />
        </g>
        <g
           id="g53"
           transform="translate(1143.1255,1226.084)">
          <path
             d="M 0,0 V -87.88 H 81.371 L 345.012,226.211 Z"
             style="fill-opacity:1;fill-rule:nonzero;stroke:none"
             id="path55" />
        </g>
        <g
           id="g57"
           transform="translate(1231.0059,876.2241)">
          <path
             d="M 0,0 H -87.88 V -81.371 L 226.211,-345.012 Z"
             style="fill-opacity:1;fill-rule:nonzero;stroke:none"
             id="path59" />
        </g>
        <g
           id="g61"
           transform="translate(895.8276,1372.936)">
          <path
             d="M 0,0 4.207,-8.199 C 48.021,5.703 90.034,9.582 125.392,9.023 155.426,7.708 189.122,2.911 224.138,-8.199 L 228.345,0 c 0,0 -110.739,75.341 -110.739,242.422 h -7.658 C 109.948,75.341 0,0 0,0"
             style="fill-opacity:1;fill-rule:nonzero;stroke:none"
             id="path63" />
        </g>
      </g>
    </g>
  </g>
</svg>
