<?xml version="1.0" encoding="UTF-8" standalone="no"?>
<!-- Created with Inkscape (http://www.inkscape.org/) -->

<svg
   version="1.1"
   id="svg9"
   width="1449.3815"
   height="1644.9012"
   viewBox="0 0 1449.3815 1644.9013"
   xmlns="http://www.w3.org/2000/svg"
   xmlns:svg="http://www.w3.org/2000/svg">
  <defs
     id="defs13">
    <clipPath
       clipPathUnits="userSpaceOnUse"
       id="clipPath179">
      <path
         d="M 0,2020 H 2020 V 0 H 0 Z"
         id="path177" />
    </clipPath>
  </defs>
  <g
     id="g169"
     transform="matrix(1.3333333,0,0,-1.3333333,-666.18558,2170.8678)">
    <g
       id="g173">
      <g
         id="g175"
         clip-path="url(#clipPath179)">
        <g
           id="g181"
           transform="translate(1322.9951,1265.4858)">
          <path
             d="m 0,0 c 0,0 104.766,-86.843 155.221,-213.476 76.824,-192.811 13.311,-382.175 -46.318,-460.197 0,0 233.124,156.638 127.16,441.597 C 178.114,-76.239 0,0 0,0"
             style="fill-opacity:1;fill-rule:nonzero;stroke:none"
             id="path183" />
        </g>
        <g
           id="g185"
           transform="translate(1010.4238,1248.8989)">
          <path
             d="m 0,0 38.276,-42.104 -74.242,-111.003 -25.277,-10.819 -193.937,151.167 11.66,93.278 237.642,194.649 267.436,-201.166 7.325,-140.215 -6.049,-29.479 -294.731,-330.457 74.001,-96.617 -33.311,-315.922 -39.601,-15.736 -39.758,316.425 -102.956,118.229 312.594,387.873 -145.296,128.44 -98.4,-91.439 43.381,-47.208 z"
             style="fill-opacity:1;fill-rule:nonzero;stroke:none"
             id="path187" />
        </g>
        <g
           id="g189"
           transform="translate(859.7314,1628.1509)">
          <path
             d="m 0,0 c -28.551,-44.451 -24.084,-116.47 31.531,-153.909 l 60.895,49.825 C 6.77,-76.567 0,0 0,0"
             style="fill-opacity:1;fill-rule:nonzero;stroke:none"
             id="path191" />
        </g>
        <g
           id="g193"
           transform="translate(714.3672,929.936)">
          <path
             d="m 0,0 c 0,56.672 19.87,108.827 53.171,150.416 l -0.019,0.003 c 0,0 -154.466,-72.685 -148.418,-300.441 0,0 -81.735,202.774 82.981,439.64 C -121.161,221.57 -214.728,62.119 -214.728,-59.19 c 0,-168.937 114.325,-316.077 276.183,-384.473 6.106,-4.289 9.831,-6.739 9.831,-6.739 l -193.935,-25.517 352.239,-41.22 -34.939,278.065 C 82.996,-213.108 0,-115.957 0,0"
             style="fill-opacity:1;fill-rule:nonzero;stroke:none"
             id="path195" />
        </g>
        <g
           id="g197"
           transform="translate(1339.6094,597.083)">
          <path
             d="m 0,0 -0.05,0.016 c 68.46,73.354 109.718,167.81 109.718,270.935 0,67.328 -18.367,131.1 -54.351,186.529 -15.413,23.744 -46.613,73.651 -72.011,110.313 l -5.969,-29.088 -51.326,-57.547 c 111.335,-214.943 -9.883,-323.964 -9.883,-323.964 22.463,133.572 -25.518,224.491 -48.306,258.722 l -0.649,-0.728 c 11.84,-31.509 16.771,-59.868 16.176,-82.335 -2.502,-94.241 -56.394,-176.091 -136.07,-217.383 l -31.555,-299.267 348.066,40.731 -193.936,25.517 c 0,0 79.942,52.128 130.146,117.549"
             style="fill-opacity:1;fill-rule:nonzero;stroke:none"
             id="path199" />
        </g>
      </g>
    </g>
  </g>
</svg>
