<?xml version="1.0" encoding="UTF-8" standalone="no"?>
<!-- Created with Inkscape (http://www.inkscape.org/) -->

<svg
   version="1.1"
   id="svg9"
   width="1243.6493"
   height="1588.4746"
   viewBox="0 0 1243.6493 1588.4746"
   xmlns="http://www.w3.org/2000/svg"
   xmlns:svg="http://www.w3.org/2000/svg">
  <defs
     id="defs13">
    <clipPath
       clipPathUnits="userSpaceOnUse"
       id="clipPath711">
      <path
         d="M 0,2020 H 2020 V 0 H 0 Z"
         id="path709" />
    </clipPath>
  </defs>
  <g
     id="g701"
     transform="matrix(1.3333333,0,0,-1.3333333,-742.41851,2140.9039)">
    <g
       id="g705">
      <g
         id="g707"
         clip-path="url(#clipPath711)">
        <g
           id="g713"
           transform="translate(987.8799,1107.793)">
          <path
             d="m 0,0 c 0,0 23.198,102.645 32.172,193.578 h 6.261 C 47.406,102.646 70.605,0 70.605,0 137.494,-270.779 35.302,-492.644 35.302,-492.644 35.302,-492.644 -66.89,-270.779 0,0 M -104.978,-24.604 C -129.543,-89.479 -205.299,-341.159 0,-553.787 l 29.1,-139.684 h 12.404 l 29.101,139.684 c 205.297,212.628 129.542,464.308 104.976,529.183 3.164,1.614 2.366,1.207 5.529,2.821 238.506,-268.109 -54.763,-532.004 -54.763,-532.004 323.299,167.708 375.324,384.454 375.324,384.454 H 390.188 c 65.032,117.168 41.544,326.276 41.544,326.276 L 280.759,151.135 254.425,112.737 C 187.535,276.952 35.302,497.885 35.302,497.885 c 0,0 -152.233,-220.933 -219.122,-385.148 l -26.335,38.398 -150.973,5.808 c 0,0 -23.487,-209.108 41.544,-326.276 h -111.482 c 0,0 52.025,-216.746 375.324,-384.454 0,0 -293.27,263.895 -54.765,532.004 3.164,-1.614 2.365,-1.207 5.529,-2.821"
             style="fill-opacity:1;fill-rule:nonzero;stroke:none"
             id="path715" />
        </g>
        <g
           id="g717"
           transform="translate(664.1152,1327.9111)">
          <path
             d="m 0,0 c 0,0 25.067,130.924 185.68,231.627 6.685,-7.114 5.327,-5.669 12.013,-12.782 C 166.863,176.693 119.059,99.319 90.579,-6.115 Z"
             style="fill-opacity:1;fill-rule:nonzero;stroke:none"
             id="path719" />
        </g>
        <g
           id="g721"
           transform="translate(900.7217,517.8789)">
          <path
             d="m 0,0 c 0,0 -142.296,-13.379 -245.784,77.841 0,0 -63.386,51.083 -64.68,186.088 0,0 54.331,-175.742 310.464,-263.929"
             style="fill-opacity:1;fill-rule:nonzero;stroke:none"
             id="path723" />
        </g>
        <g
           id="g725"
           transform="translate(1196.5693,1559.5381)">
          <path
             d="m 0,0 c 160.612,-100.703 185.68,-231.627 185.68,-231.627 l -90.579,-6.115 C 66.621,-132.308 18.816,-54.934 -12.014,-12.782 -5.327,-5.669 -6.686,-7.114 0,0"
             style="fill-opacity:1;fill-rule:nonzero;stroke:none"
             id="path727" />
        </g>
        <g
           id="g729"
           transform="translate(1456.1064,781.8076)">
          <path
             d="m 0,0 c -1.294,-135.005 -64.68,-186.088 -64.68,-186.088 -103.488,-91.22 -245.784,-77.841 -245.784,-77.841 C -54.331,-175.742 0,0 0,0"
             style="fill-opacity:1;fill-rule:nonzero;stroke:none"
             id="path731" />
        </g>
      </g>
    </g>
  </g>
</svg>
